<?xml version="1.0" standalone="no"?>
<!DOCTYPE svg PUBLIC "-//W3C//DTD SVG 20010904//EN"
 "http://www.w3.org/TR/2001/REC-SVG-20010904/DTD/svg10.dtd">
<svg version="1.0" xmlns="http://www.w3.org/2000/svg"
 width="512.000000pt" height="512.000000pt" viewBox="0 0 512.000000 512.000000"
 preserveAspectRatio="xMidYMid meet">
<metadata>
Created by potrace 1.14, written by Peter Selinger 2001-2017
</metadata>
<g transform="translate(0.000000,512.000000) scale(0.100000,-0.100000)"
fill="#000000" stroke="none">
<path d="M192 3582 c7 -10 218 -247 468 -526 250 -280 456 -511 458 -515 1 -4
-199 -232 -445 -507 -247 -276 -454 -508 -462 -517 -13 -16 117 -17 1916 -17
l1930 0 467 521 c256 287 466 524 466 528 0 4 -210 242 -467 529 l-467 522
-1938 0 c-1876 0 -1939 -1 -1926 -18z m2314 -991 c37 -17 119 -94 187 -176 14
-17 41 -40 61 -50 35 -19 36 -19 62 1 35 25 54 80 61 172 l6 72 79 0 78 0 -6
-57 c-26 -241 -108 -353 -261 -353 -68 0 -130 40 -220 143 -45 51 -93 99 -106
106 -32 17 -68 8 -86 -21 -19 -31 -41 -115 -41 -160 0 -65 -4 -68 -86 -68 -41
0 -74 3 -74 8 0 45 25 185 41 227 56 150 180 213 305 156z"/>
</g>
</svg>
